<?xml version="1.0" encoding="utf-8"?>
<!-- Generator: Adobe Illustrator 16.0.0, SVG Export Plug-In . SVG Version: 6.00 Build 0)  -->
<!DOCTYPE svg PUBLIC "-//W3C//DTD SVG 1.1//EN" "http://www.w3.org/Graphics/SVG/1.1/DTD/svg11.dtd">
<svg version="1.1" id="圖層_1" xmlns="http://www.w3.org/2000/svg" xmlns:xlink="http://www.w3.org/1999/xlink" x="0px" y="0px"
	 width="447.103px" height="77.763px" viewBox="0 0 447.103 77.763" enable-background="new 0 0 447.103 77.763"
	 xml:space="preserve">
<g>
	<path fill="#D71820" d="M119.312,0.015c0,0-0.304-0.013-0.869-0.015c-7.012,0.02-33.26,1.084-58.756,14.953
		C34.192,1.084,7.945,0.02,0.932,0C0.367,0.002,0.063,0.015,0.063,0.015C0.029,0.017,0.002,0.042,0,0.08
		c-0.002,0.032,0.021,0.061,0.053,0.068c0.139,0.02,0.277,0.039,0.416,0.059C1.158,0.3,1.844,0.411,2.531,0.539
		c12.43,2.201,24.64,7.789,33.436,12.6h-0.007c0.057,0.028,0.112,0.06,0.167,0.088c4.604,2.525,8.252,4.822,10.489,6.296
		c0.908,0.632,1.792,1.271,2.655,1.914c-3.133,2.212-6.213,4.64-9.191,7.333H12.501l19.735,7.819
		c-6.903,7.901-17.175,22.688-17.679,41.174H38.62c0,0-7.193-20.471,21.068-47.479c28.262,27.009,21.067,47.479,21.067,47.479
		h24.064c-0.505-18.486-10.776-33.273-17.681-41.174l19.736-7.819H79.297c-2.98-2.693-6.061-5.121-9.191-7.333
		c0.861-0.644,1.745-1.282,2.652-1.914c2.24-1.474,5.886-3.771,10.491-6.296c0.053-0.028,0.108-0.06,0.165-0.088h-0.006
		c8.797-4.811,21.006-10.399,33.434-12.6c0.688-0.128,1.375-0.239,2.064-0.332c0.14-0.021,0.277-0.04,0.417-0.059
		c0.031-0.007,0.055-0.037,0.053-0.068C119.373,0.042,119.347,0.017,119.312,0.015z"/>
	<g>
		<path fill="#221E1F" d="M143.628,29.492h16.345c1.398,0,2.44-0.305,3.112-0.906c0.682-0.601,1.146-1.628,1.419-3.091l0.917-4.738
			h-35.497l-0.317,1.518c0.852,0.131,1.523,0.427,2.01,0.896c0.502,0.468,0.742,1.037,0.742,1.736c0,0.217-0.011,0.371-0.021,0.468
			c-0.011,0.108-0.033,0.208-0.06,0.285L125.7,53.11l-6.524,24.172h4.7h10.176h1.889l0.241-1.549
			c-1.059-0.088-1.835-0.318-2.326-0.723c-0.491-0.381-0.737-0.959-0.737-1.713c0-0.207,0.039-0.535,0.126-0.994
			c0-0.076,0.01-0.152,0.032-0.229l5.295-21.805h14.5c1.386,0,2.397-0.273,3.069-0.83c0.666-0.566,1.146-1.527,1.435-2.914l1-4.49
			h-17.973L143.628,29.492z"/>
		<path fill="#221E1F" d="M172.913,73.144c0-0.293,0.01-0.502,0.021-0.633s0.033-0.273,0.054-0.404l11.918-48.521
			c0.049-0.23,0.093-0.426,0.115-0.58c0.033-0.142,0.044-0.273,0.044-0.37c0-0.612-0.23-1.082-0.683-1.398
			c-0.442-0.316-1.103-0.481-1.949-0.481h-12.551l-0.398,1.518c0.874,0.131,1.567,0.416,2.075,0.852
			c0.507,0.438,0.753,0.984,0.753,1.617c0,0.108,0,0.208-0.021,0.316c-0.011,0.11-0.055,0.305-0.136,0.601l-5.28,21.871l-0.033-0.33
			l-8.113,30.082h4.542H173.6h2.064l0.311-1.549c-0.999-0.057-1.774-0.295-2.288-0.732C173.169,74.554,172.913,73.94,172.913,73.144
			z"/>
		<path fill="#221E1F" d="M226.43,46.034c2.932-3.701,4.404-8.386,4.404-14.042c0-3.645-1.014-6.409-3.049-8.342
			c-2.025-1.92-4.958-2.893-8.774-2.893h-26.697l-0.316,1.518c0.874,0.11,1.55,0.373,2.031,0.797
			c0.48,0.425,0.709,0.982,0.709,1.671c0,0.108,0,0.208-0.016,0.316c-0.017,0.11-0.06,0.305-0.137,0.601l-8.43,35.179l-4.433,16.443
			h4.057h10.809h1.502l0.404-1.549c-0.994-0.057-1.737-0.283-2.239-0.723c-0.502-0.414-0.759-1.014-0.759-1.779
			c0-0.293,0.006-0.512,0.022-0.643c0.01-0.131,0.033-0.264,0.06-0.361l4.662-19.402h4.144l6.295,21.115
			c0.37,1.279,0.955,2.152,1.751,2.623c0.792,0.48,2.462,0.719,5.018,0.719c1.747,0,3.084-0.053,4.001-0.152
			c0.923-0.109,1.512-0.262,1.774-0.479c0.372-0.318,0.705-0.975,0.993-1.934c0.296-0.971,0.723-3.102,1.28-6.398
			c-0.373,0.086-0.723,0.152-1.039,0.184c-0.316,0.045-0.617,0.057-0.917,0.057c-0.874,0-1.589-0.207-2.151-0.633
			c-0.552-0.426-1.005-1.082-1.35-1.998l-4.984-14.338h0.164C219.759,51.591,223.499,49.745,226.43,46.034z M209.441,44.581h-7.092
			l3.746-15.778h7.097c1.878,0,3.265,0.34,4.138,1.016c0.874,0.677,1.316,1.736,1.316,3.168c0,3.776-0.781,6.648-2.353,8.625
			C214.725,43.599,212.449,44.581,209.441,44.581z"/>
		<path fill="#221E1F" d="M269.99,29.492c1.594,0,2.73-0.436,3.385-1.31c0.666-0.851,1.355-3.331,2.074-7.425h-35.416l-0.321,1.518
			c0.913,0.11,1.595,0.361,2.054,0.776c0.469,0.414,0.699,0.971,0.699,1.692c0,0.108-0.012,0.239-0.043,0.415
			c-0.023,0.186-0.057,0.371-0.117,0.579l-6.135,25.769l-6.956,25.777h5.008h9.868h17.063c1.725,0,3.007-0.611,3.836-1.844
			c0.842-1.236,1.744-4.564,2.688-9.982h-1.467c-0.4,1.027-0.914,1.781-1.558,2.252c-0.632,0.469-1.497,0.697-2.588,0.697h-18.036
			l4.416-18.201h13.861c2.148,0,3.603-0.469,4.346-1.42c0.736-0.949,1.385-3.197,1.941-6.748h-18.038l2.866-12.544H269.99z"/>
		<path fill="#221E1F" d="M283.322,25.921c-2.861,3.428-4.285,8.157-4.285,14.162c0,2.414,0.431,4.346,1.293,5.82
			c0.863,1.463,2.25,2.631,4.16,3.494l9.805,4.301c1.322,0.592,2.283,1.258,2.859,2.021c0.592,0.752,0.888,1.691,0.888,2.807
			c0,2.947-0.939,5.359-2.814,7.227c-1.871,1.867-4.306,2.807-7.31,2.807h-9.565c-1.489,0-2.521-0.24-3.121-0.732
			c-0.595-0.502-0.95-1.344-1.048-2.533h-1.441l-1.713,7.338c0,0.045-0.012,0.141-0.045,0.262c-0.075,0.58-0.109,0.973-0.109,1.213
			c0,1.189,0.502,2.02,1.523,2.477c1.025,0.473,3.062,0.699,6.119,0.699h11.908c6.113,0,10.823-1.832,14.15-5.512
			c3.313-3.682,4.974-8.865,4.974-15.604c0-2.623-0.535-4.805-1.612-6.541c-1.074-1.736-2.766-3.154-5.083-4.248l-8.483-4.061
			c-1.408-0.688-2.391-1.366-2.957-1.998c-0.58-0.634-0.865-1.366-0.865-2.186c0-2.182,0.612-3.941,1.83-5.262
			c1.229-1.333,2.855-1.987,4.897-1.987h9.411c1.081,0,1.945-0.273,2.59-0.82c0.632-0.544,1.07-1.374,1.309-2.489l1.239-5.819
			h-16.743C290.097,20.757,286.171,22.482,283.322,25.921z"/>
		<path fill="#221E1F" d="M333.296,71.431l10.276-42.025h8.725c2.574,0,4.486-3.035,5.736-9.087
			c0.132-0.664,0.236-1.167,0.311-1.516h-1.474c-0.206,0.73-0.567,1.233-1.092,1.516c-0.518,0.296-1.343,0.438-2.49,0.438h-27.842
			c-3.21,0-5.496,3.046-6.851,9.128c-0.159,0.774-0.296,1.366-0.4,1.781h1.553c0.184-0.808,0.545-1.399,1.074-1.748
			c0.535-0.339,1.348-0.513,2.429-0.513h8.174l-6.087,25.515l-6.027,22.361h5.896h8.974h1.623l0.315-1.549
			c-0.979-0.088-1.741-0.361-2.266-0.842c-0.535-0.469-0.801-1.125-0.801-1.941c0-0.242,0.021-0.482,0.06-0.744
			C333.153,71.954,333.21,71.692,333.296,71.431z"/>
		<path fill="#221E1F" d="M393.246,71.224l-2.67-46.285c-0.099-1.563-0.47-2.653-1.103-3.265c-0.611-0.61-1.671-0.917-3.166-0.917
			H372.21l-0.314,1.561c0.659,0,1.168,0.142,1.505,0.427c0.355,0.295,0.523,0.72,0.523,1.278c0,0.294-0.074,0.644-0.223,1.037
			c-0.147,0.404-0.376,0.896-0.694,1.475l-15.711,28.03l-12.917,22.719h4.336h5.917h5.116l0.19-1.549
			c-0.737-0.088-1.261-0.262-1.571-0.535c-0.3-0.285-0.461-0.732-0.461-1.332c0.034-0.24,0.079-0.48,0.149-0.699
			c0.061-0.229,0.169-0.459,0.288-0.699l5.7-10.994h16.826l0.698,15.809h4.739h4.613h5.355l0.233-1.549
			c-0.977-0.219-1.751-0.699-2.309-1.475C393.644,73.495,393.329,72.478,393.246,71.224z M367.631,53.624l11.961-21.075
			l0.929,21.075H367.631z"/>
		<path fill="#221E1F" d="M442.707,46.034c2.933-3.701,4.396-8.386,4.396-14.042c0-3.645-1.017-6.409-3.046-8.342
			c-2.031-1.92-4.957-2.893-8.79-2.893h-26.686l-0.316,1.518c0.872,0.11,1.558,0.373,2.03,0.797
			c0.476,0.425,0.717,0.982,0.717,1.671c0,0.108-0.007,0.208-0.019,0.316c-0.009,0.11-0.06,0.305-0.142,0.601l-7.796,32.548
			l-5.153,19.074h4.15h10.733h1.571l0.404-1.549c-0.987-0.057-1.725-0.283-2.237-0.723c-0.504-0.414-0.749-1.014-0.749-1.779
			c0-0.293,0.004-0.512,0.015-0.643c0.012-0.131,0.028-0.264,0.061-0.361l4.663-19.402h4.143l6.291,21.115
			c0.382,1.279,0.96,2.152,1.757,2.623c0.798,0.48,2.469,0.719,5.014,0.719c1.755,0,3.087-0.053,4.012-0.152
			c0.911-0.109,1.501-0.262,1.774-0.479c0.358-0.318,0.699-0.975,0.987-1.934c0.288-0.971,0.715-3.102,1.272-6.398
			c-0.37,0.086-0.715,0.152-1.033,0.184c-0.321,0.045-0.626,0.057-0.92,0.057c-0.865,0-1.591-0.207-2.148-0.633
			c-0.556-0.426-1.009-1.082-1.353-1.998l-4.973-14.338h0.152C436.03,51.591,439.766,49.745,442.707,46.034z M425.713,44.581h-7.096
			l3.749-15.778h7.093c1.888,0,3.269,0.34,4.143,1.016c0.88,0.677,1.315,1.736,1.315,3.168c0,3.776-0.786,6.648-2.349,8.625
			C430.997,43.599,428.716,44.581,425.713,44.581z"/>
	</g>
</g>
</svg>
