<?xml version="1.0" encoding="utf-8"?>
<!-- Generator: Adobe Illustrator 16.0.0, SVG Export Plug-In . SVG Version: 6.00 Build 0)  -->
<!DOCTYPE svg PUBLIC "-//W3C//DTD SVG 1.1//EN" "http://www.w3.org/Graphics/SVG/1.1/DTD/svg11.dtd">
<svg version="1.1" id="圖層_1" xmlns="http://www.w3.org/2000/svg" xmlns:xlink="http://www.w3.org/1999/xlink" x="0px" y="0px"
	 width="116.835px" height="114.887px" viewBox="0 0 116.835 114.887" enable-background="new 0 0 116.835 114.887"
	 xml:space="preserve">
<g>
	<rect y="105.764" fill="#D71820" width="116.835" height="9.123"/>
	<path fill="#D71820" d="M22.068,86.368H0v11.127h34.873C29.942,94.588,25.617,90.822,22.068,86.368z"/>
	<path fill="#D71820" d="M81.954,97.495h34.881V86.368H94.75C91.218,90.822,86.885,94.588,81.954,97.495z"/>
	<path fill="#D71820" d="M74.702,94.205c-0.113-2.736-0.46-5.335-0.93-7.837H43.046c-0.477,2.502-0.824,5.101-0.93,7.837
		c3.598,1.609,7.438,2.692,11.423,3.153v0.137h9.725v-0.137C67.249,96.897,71.113,95.814,74.702,94.205z"/>
	<path fill="#D71820" d="M16.191,38.035c2.231,0.485,4.333,0.99,6.266,1.495c-2.773,5.493-4.22,11.601-4.22,17.934
		c0,2.214,0.193,4.39,0.541,6.532h16.055c0.776-0.962,1.552-1.92,2.425-2.919c0.162-0.186-0.04-0.266-0.04-0.266l-13.791-5.437
		c0,0-0.315-0.113-0.21-0.444c0,0,0.049-0.194,0.348-0.194l2.142,0.016l17.672,0.036c2.013-1.863,4.228-3.755,6.669-5.663
		c-3.783-2.773-7.404-5.125-10.775-7.082c-10.372-5.998-18.634-8.403-23.015-9.337c0,0,0,0,0-0.012
		c-0.065-0.012-0.275-0.105-0.251-0.347c0,0,0.049-0.299,0.355-0.283c0.17,0,0.453,0.012,0.76,0.028
		c11.439,0.433,21.115,2.866,28.568,5.538c5.57,2,9.895,4.179,12.74,5.768c2.805-1.588,7.13-3.767,12.724-5.768
		c7.43-2.672,17.114-5.105,28.553-5.538c0.282-0.016,0.582-0.028,0.751-0.028c0.315-0.016,0.348,0.283,0.348,0.283
		c0.033,0.242-0.161,0.335-0.25,0.347c0,0.012,0,0.012,0,0.012c-4.373,0.934-12.619,3.339-22.975,9.337
		c-3.411,1.957-7.032,4.309-10.808,7.082c2.449,1.908,4.648,3.799,6.677,5.663l17.688-0.036l2.126-0.016
		c0.3,0,0.355,0.194,0.355,0.194c0.089,0.332-0.202,0.444-0.202,0.444l-13.814,5.437c0,0-0.219,0.08-0.032,0.266
		c0.873,0.999,1.665,1.957,2.417,2.919h16.063c0.348-2.142,0.525-4.317,0.525-6.532c0-6.333-1.447-12.441-4.212-17.934
		c1.94-0.505,4.042-1.01,6.257-1.495c2.732,5.901,4.252,12.505,4.252,19.429c0,2.223-0.202,4.39-0.501,6.532h12.465V0H0v63.996
		h12.457c-0.307-2.142-0.509-4.309-0.509-6.532C11.948,50.54,13.468,43.936,16.191,38.035z M58.43,11.006
		c14.042,0,26.669,6.257,35.188,16.131c-2.198,0.368-4.785,0.805-7.485,1.253c-7.502-7.158-17.308-11.091-27.703-11.091
		c-10.444,0-20.233,3.933-27.728,11.091c-2.708-0.449-5.303-0.885-7.502-1.253C31.729,17.263,44.34,11.006,58.43,11.006z"/>
	<path fill="#D71820" d="M58.43,56.566c-1.803,1.964-3.864,4.455-5.893,7.429h11.762C62.277,61.021,60.217,58.531,58.43,56.566z"/>
	<path fill="#D71820" d="M0,67.184v13.771h18.358c-2.481-4.216-4.317-8.844-5.359-13.771H0z"/>
	<path fill="#D71820" d="M91.282,80.58c2.886-4.062,4.923-8.601,6.111-13.396H84.371C88.518,73.106,90.434,77.913,91.282,80.58z"/>
	<path fill="#D71820" d="M116.835,80.956V67.184H103.82c-1.051,4.928-2.878,9.556-5.352,13.771H116.835z"/>
	<path fill="#D71820" d="M25.528,80.58c0.849-2.667,2.765-7.474,6.928-13.396H19.434C20.622,71.979,22.667,76.518,25.528,80.58z"/>
	<path fill="#D71820" d="M66.344,67.184h-15.86c-2.377,3.934-4.567,8.541-6.128,13.771h28.1
		C70.903,75.725,68.712,71.118,66.344,67.184z"/>
</g>
</svg>
